HIERARCHY
ROOT mixamorig:Hips
{
	OFFSET -0.000008 104.274872 1.554316
	CHANNELS 6 Xposition Yposition Zposition Xrotation Yrotation Zrotation
	JOINT mixamorig:Spine
	{
		OFFSET -0.000005 10.181587 0.131521
		CHANNELS 6 Xposition Yposition Zposition Xrotation Yrotation Zrotation
		JOINT mixamorig:Spine1
		{
			OFFSET -0.000000 9.893967 -1.470711
			CHANNELS 3 Xrotation Yrotation Zrotation
			JOINT mixamorig:Spine2
			{
				OFFSET -0.000000 9.220772 -1.370643
				CHANNELS 3 Xrotation Yrotation Zrotation
				JOINT mixamorig:Neck
				{
					OFFSET 0.000001 16.740387 -2.049035
					CHANNELS 6 Xposition Yposition Zposition Xrotation Yrotation Zrotation
					JOINT mixamorig:Head
					{
						OFFSET 0.000000 9.617889 1.685008
						CHANNELS 6 Xposition Yposition Zposition Xrotation Yrotation Zrotation
						JOINT mixamorig:HeadTop_End
						{
							OFFSET 0.000002 22.037369 7.501095
							CHANNELS 6 Xposition Yposition Zposition Xrotation Yrotation Zrotation
							End Site
							{
								OFFSET 0.000002 23.106552 -2.828258
							}
						}
					}
				}
				JOINT mixamorig:RightShoulder
				{
					OFFSET -4.569969 11.014908 -2.160884
					CHANNELS 6 Xposition Yposition Zposition Xrotation Yrotation Zrotation
					JOINT mixamorig:RightArm
					{
						OFFSET -10.592846 -0.524811 -2.232097
						CHANNELS 3 Xrotation Yrotation Zrotation
						JOINT mixamorig:RightForeArm
						{
							OFFSET -27.841518 0.000000 -0.000004
							CHANNELS 3 Xrotation Yrotation Zrotation
							JOINT mixamorig:RightHand
							{
								OFFSET -28.328838 0.000000 0.000019
								CHANNELS 3 Xrotation Yrotation Zrotation
								JOINT mixamorig:RightHandThumb1
								{
									OFFSET -2.464806 -1.573990 2.681852
									CHANNELS 6 Xposition Yposition Zposition Xrotation Yrotation Zrotation
									JOINT mixamorig:RightHandThumb2
									{
										OFFSET -3.215187 -1.872772 1.924281
										CHANNELS 3 Xrotation Yrotation Zrotation
										JOINT mixamorig:RightHandThumb3
										{
											OFFSET -2.654839 -1.527985 1.512611
											CHANNELS 3 Xrotation Yrotation Zrotation
											JOINT mixamorig:RightHandThumb4
											{
												OFFSET -2.018822 -1.152008 1.108052
												CHANNELS 3 Xrotation Yrotation Zrotation
												End Site
												{
													OFFSET -1.888100 -1.145340 1.324313
												}
											}
										}
									}
								}
								JOINT mixamorig:RightHandIndex1
								{
									OFFSET -9.108284 -0.517868 2.259834
									CHANNELS 6 Xposition Yposition Zposition Xrotation Yrotation Zrotation
									JOINT mixamorig:RightHandIndex2
									{
										OFFSET -3.699997 0.000015 0.001215
										CHANNELS 3 Xrotation Yrotation Zrotation
										JOINT mixamorig:RightHandIndex3
										{
											OFFSET -2.850006 0.000000 -0.000521
											CHANNELS 3 Xrotation Yrotation Zrotation
											JOINT mixamorig:RightHandIndex4
											{
												OFFSET -2.772186 0.000000 -0.000020
												CHANNELS 3 Xrotation Yrotation Zrotation
												End Site
												{
													OFFSET -2.772186 0.000000 -0.000502
												}
											}
										}
									}
								}
								JOINT mixamorig:RightHandMiddle1
								{
									OFFSET -9.532501 -0.000046 -0.000025
									CHANNELS 6 Xposition Yposition Zposition Xrotation Yrotation Zrotation
									JOINT mixamorig:RightHandMiddle2
									{
										OFFSET -3.699997 0.000015 0.003713
										CHANNELS 3 Xrotation Yrotation Zrotation
										JOINT mixamorig:RightHandMiddle3
										{
											OFFSET -2.949997 0.000000 -0.002054
											CHANNELS 3 Xrotation Yrotation Zrotation
											JOINT mixamorig:RightHandMiddle4
											{
												OFFSET -2.946632 0.000015 -0.000155
												CHANNELS 3 Xrotation Yrotation Zrotation
												End Site
												{
													OFFSET -2.946625 0.000000 -0.001135
												}
											}
										}
									}
								}
								JOINT mixamorig:RightHandRing1
								{
									OFFSET -9.103592 -0.043076 -1.865134
									CHANNELS 6 Xposition Yposition Zposition Xrotation Yrotation Zrotation
									JOINT mixamorig:RightHandRing2
									{
										OFFSET -3.379272 0.000000 -0.001054
										CHANNELS 3 Xrotation Yrotation Zrotation
										JOINT mixamorig:RightHandRing3
										{
											OFFSET -2.889687 0.000000 0.000379
											CHANNELS 3 Xrotation Yrotation Zrotation
											JOINT mixamorig:RightHandRing4
											{
												OFFSET -2.638817 0.000000 0.000942
												CHANNELS 3 Xrotation Yrotation Zrotation
												End Site
												{
													OFFSET -2.638802 0.000000 0.005160
												}
											}
										}
									}
								}
								JOINT mixamorig:RightHandPinky1
								{
									OFFSET -8.076675 -0.486710 -3.806279
									CHANNELS 6 Xposition Yposition Zposition Xrotation Yrotation Zrotation
									JOINT mixamorig:RightHandPinky2
									{
										OFFSET -3.599998 -0.000031 -0.003747
										CHANNELS 3 Xrotation Yrotation Zrotation
										JOINT mixamorig:RightHandPinky3
										{
											OFFSET -2.099991 -0.000015 -0.005740
											CHANNELS 3 Xrotation Yrotation Zrotation
											JOINT mixamorig:RightHandPinky4
											{
												OFFSET -2.115776 -0.000015 -0.003680
												CHANNELS 3 Xrotation Yrotation Zrotation
												End Site
												{
													OFFSET -2.115784 -0.000015 -0.003507
												}
											}
										}
									}
								}
							}
						}
					}
				}
				JOINT mixamorig:LeftShoulder
				{
					OFFSET 4.570447 11.014709 -2.160855
					CHANNELS 6 Xposition Yposition Zposition Xrotation Yrotation Zrotation
					JOINT mixamorig:LeftArm
					{
						OFFSET 10.592369 -0.524597 -2.232120
						CHANNELS 3 Xrotation Yrotation Zrotation
						JOINT mixamorig:LeftForeArm
						{
							OFFSET 27.841522 -0.000031 0.000023
							CHANNELS 3 Xrotation Yrotation Zrotation
							JOINT mixamorig:LeftHand
							{
								OFFSET 28.328835 -0.000031 0.000018
								CHANNELS 3 Xrotation Yrotation Zrotation
								JOINT mixamorig:LeftHandThumb1
								{
									OFFSET 2.466141 -1.576187 2.681734
									CHANNELS 6 Xposition Yposition Zposition Xrotation Yrotation Zrotation
									JOINT mixamorig:LeftHandThumb2
									{
										OFFSET 3.217804 -1.872055 1.916487
										CHANNELS 3 Xrotation Yrotation Zrotation
										JOINT mixamorig:LeftHandThumb3
										{
											OFFSET 2.656013 -1.528809 1.514505
											CHANNELS 3 Xrotation Yrotation Zrotation
											JOINT mixamorig:LeftHandThumb4
											{
												OFFSET 2.020889 -1.154068 1.115134
												CHANNELS 3 Xrotation Yrotation Zrotation
												End Site
												{
													OFFSET 1.908852 -1.150833 1.300489
												}
											}
										}
									}
								}
								JOINT mixamorig:LeftHandIndex1
								{
									OFFSET 9.109306 -0.518036 2.259871
									CHANNELS 6 Xposition Yposition Zposition Xrotation Yrotation Zrotation
									JOINT mixamorig:LeftHandIndex2
									{
										OFFSET 3.699997 -0.000015 -0.000323
										CHANNELS 3 Xrotation Yrotation Zrotation
										JOINT mixamorig:LeftHandIndex3
										{
											OFFSET 2.850006 -0.000015 0.000350
											CHANNELS 3 Xrotation Yrotation Zrotation
											JOINT mixamorig:LeftHandIndex4
											{
												OFFSET 2.774864 0.000000 -0.000027
												CHANNELS 3 Xrotation Yrotation Zrotation
												End Site
												{
													OFFSET 2.774872 -0.000015 -0.000099
												}
											}
										}
									}
								}
								JOINT mixamorig:LeftHandMiddle1
								{
									OFFSET 9.533401 0.000031 0.000044
									CHANNELS 6 Xposition Yposition Zposition Xrotation Yrotation Zrotation
									JOINT mixamorig:LeftHandMiddle2
									{
										OFFSET 3.699997 -0.000015 -0.000231
										CHANNELS 3 Xrotation Yrotation Zrotation
										JOINT mixamorig:LeftHandMiddle3
										{
											OFFSET 2.950005 0.000000 -0.000060
											CHANNELS 3 Xrotation Yrotation Zrotation
											JOINT mixamorig:LeftHandMiddle4
											{
												OFFSET 2.952858 0.000000 0.000063
												CHANNELS 3 Xrotation Yrotation Zrotation
												End Site
												{
													OFFSET 2.952866 0.000000 0.000228
												}
											}
										}
									}
								}
								JOINT mixamorig:LeftHandRing1
								{
									OFFSET 9.104530 -0.043030 -1.865074
									CHANNELS 6 Xposition Yposition Zposition Xrotation Yrotation Zrotation
									JOINT mixamorig:LeftHandRing2
									{
										OFFSET 3.150002 -0.000015 0.000042
										CHANNELS 3 Xrotation Yrotation Zrotation
										JOINT mixamorig:LeftHandRing3
										{
											OFFSET 2.949997 0.000000 0.000037
											CHANNELS 3 Xrotation Yrotation Zrotation
											JOINT mixamorig:LeftHandRing4
											{
												OFFSET 2.644318 -0.000015 0.000059
												CHANNELS 3 Xrotation Yrotation Zrotation
												End Site
												{
													OFFSET 2.644318 0.000000 0.000121
												}
											}
										}
									}
								}
								JOINT mixamorig:LeftHandPinky1
								{
									OFFSET 8.077782 -0.486877 -3.806256
									CHANNELS 6 Xposition Yposition Zposition Xrotation Yrotation Zrotation
									JOINT mixamorig:LeftHandPinky2
									{
										OFFSET 3.599968 0.000031 0.014726
										CHANNELS 3 Xrotation Yrotation Zrotation
										JOINT mixamorig:LeftHandPinky3
										{
											OFFSET 2.099991 0.000015 0.007705
											CHANNELS 3 Xrotation Yrotation Zrotation
											JOINT mixamorig:LeftHandPinky4
											{
												OFFSET 2.125511 0.000015 0.007514
												CHANNELS 3 Xrotation Yrotation Zrotation
												End Site
												{
													OFFSET 2.125526 0.000015 0.006258
												}
											}
										}
									}
								}
							}
						}
					}
				}
			}
		}
	}
	JOINT mixamorig:RightUpLeg
	{
		OFFSET -8.207787 -6.751671 -1.599560
		CHANNELS 6 Xposition Yposition Zposition Xrotation Yrotation Zrotation
		JOINT mixamorig:RightLeg
		{
			OFFSET -0.000001 -44.370113 0.345939
			CHANNELS 3 Xrotation Yrotation Zrotation
			JOINT mixamorig:RightFoot
			{
				OFFSET 0.000001 -44.423676 -3.043536
				CHANNELS 3 Xrotation Yrotation Zrotation
				JOINT mixamorig:RightToeBase
				{
					OFFSET -0.000003 -8.728670 10.710561
					CHANNELS 3 Xrotation Yrotation Zrotation
					JOINT mixamorig:RightToe_End
					{
						OFFSET -0.000003 -0.000677 9.278120
						CHANNELS 3 Xrotation Yrotation Zrotation
						End Site
						{
							OFFSET -0.000003 -0.000677 9.278120
						}
					}
				}
			}
		}
	}
	JOINT mixamorig:LeftUpLeg
	{
		OFFSET 8.207791 -6.751701 -1.599555
		CHANNELS 6 Xposition Yposition Zposition Xrotation Yrotation Zrotation
		JOINT mixamorig:LeftLeg
		{
			OFFSET -0.000002 -44.370033 0.346958
			CHANNELS 3 Xrotation Yrotation Zrotation
			JOINT mixamorig:LeftFoot
			{
				OFFSET 0.000000 -44.423653 -3.044392
				CHANNELS 3 Xrotation Yrotation Zrotation
				JOINT mixamorig:LeftToeBase
				{
					OFFSET -0.000003 -8.728668 10.710560
					CHANNELS 3 Xrotation Yrotation Zrotation
					JOINT mixamorig:LeftToe_End
					{
						OFFSET -0.000003 -0.000677 9.278137
						CHANNELS 3 Xrotation Yrotation Zrotation
						End Site
						{
							OFFSET -0.000003 -0.000677 9.278137
						}
					}
				}
			}
		}
	}
}
MOTION
Frames: 4
Frame Time: 0.033333
0.107862 100.406296 1.431336 -11.878308 -3.474873 -1.533083 -0.000005 10.181597 0.131523 4.687186 1.424019 0.084141 12.420665 0.677388 -0.435245 23.633505 0.564151 -0.528555 0.000001 16.740412 -2.049038 -12.477243 1.222665 -3.665039 0.000002 9.617899 1.685009 -6.475211 -6.315622 -0.370697 0.000005 22.037354 7.501097 -0.000000 0.000000 -0.000000 -4.569972 11.014911 -2.160876 4.151354 2.909943 8.240507 -16.305994 9.762492 57.629011 -4.061246 43.962437 1.639883 0.161926 2.621741 21.512627 -2.464807 -1.573980 2.681842 0.954056 0.998590 5.826198 4.522327 -43.401259 -9.479663 -4.022610 -12.283963 -16.204994 0.000003 -0.000010 0.000004 -9.108289 -0.517863 2.259833 11.882565 12.472310 -7.755168 0.867824 -2.690699 35.642441 0.413058 -1.929815 24.293904 -0.000004 -0.000000 -0.000003 -9.532506 -0.000050 -0.000025 0.051146 -2.461506 1.497686 0.765918 -2.503695 33.789977 0.244644 -1.531045 18.671429 -0.000001 -0.000000 -0.000001 -9.103581 -0.043073 -1.865137 1.332644 -7.598509 10.732295 0.744410 -2.545738 32.721158 0.243098 -1.479094 18.324561 0.000000 0.000005 -0.000001 -8.076676 -0.486710 -3.806281 1.817406 -24.592579 18.496215 0.646440 -2.433856 32.496124 0.203442 -1.522986 18.244706 -0.000002 0.000000 -0.000003 4.570446 11.014721 -2.160851 4.652421 -1.382551 -9.654832 -18.361516 -4.415482 -56.440845 -4.574311 -47.360924 -2.006989 0.840062 12.903698 -30.026905 2.466135 -1.576203 2.681727 2.200413 0.871450 -5.256707 4.754147 41.652017 8.782991 -5.673370 6.367352 14.943464 0.000001 0.000000 -0.000003 9.109314 -0.518041 2.259869 11.647901 -12.237432 2.581756 2.075109 4.477810 -49.691163 1.401002 3.795773 -40.443340 -0.000000 -0.000005 -0.000006 9.533412 0.000008 0.000039 0.120084 3.169401 -7.958414 1.980890 4.395213 -48.552263 1.020284 3.306458 -34.290538 0.000001 0.000007 -0.000009 9.104552 -0.043036 -1.865080 2.037954 8.379491 -17.338036 1.814879 4.238884 -46.327612 0.894005 3.111644 -32.039154 -0.000002 0.000009 0.000005 8.077792 -0.486872 -3.806268 2.438773 25.851433 -24.075534 1.778305 3.976113 -43.823535 0.864153 2.861022 -29.572598 0.000000 -0.000000 -0.000004 -8.207788 -6.751677 -1.599563 -8.339178 -12.342157 -9.941182 28.837366 5.145508 -1.658915 -10.281643 -1.668043 10.677066 -0.531760 0.000005 -0.000003 -0.000000 0.000000 -0.000000 8.207792 -6.751696 -1.599555 -6.315781 16.593096 16.297726 26.176155 -6.425259 -2.205959 -9.657557 0.731802 -6.491079 -0.000035 0.000005 0.000008 -0.000000 0.000001 0.000000 
0.054324 100.470665 1.462342 -11.803513 -3.637849 -1.607008 -0.000005 10.181594 0.131521 4.582670 1.428490 0.081006 12.349824 0.684663 -0.416124 23.577442 0.573611 -0.512361 0.000001 16.740383 -2.049040 -12.743743 1.237386 -3.656333 -0.000001 9.617916 1.685004 -6.324385 -6.275411 -0.368636 0.000001 22.037354 7.501093 0.000001 0.000000 0.000001 -4.569971 11.014908 -2.160885 4.074338 2.770566 7.953500 -15.621247 9.626658 57.453461 -4.246376 45.236992 1.769850 -0.009345 2.220302 21.943265 -2.464825 -1.573957 2.681846 0.954050 0.998590 5.826196 4.522325 -43.401255 -9.479674 -4.022603 -12.283976 -16.204994 -0.000001 -0.000001 0.000004 -9.108295 -0.517881 2.259833 11.874956 12.412906 -7.018393 0.897882 -2.732301 36.273461 0.420051 -1.945253 24.502079 -0.000002 -0.000000 0.000000 -9.532516 -0.000046 -0.000027 0.053217 -2.508813 2.078689 0.788320 -2.537461 34.288496 0.248952 -1.543753 18.835886 -0.000001 -0.000000 0.000001 -9.103604 -0.043085 -1.865132 1.363945 -7.617914 11.069598 0.757038 -2.565177 33.006169 0.245525 -1.486351 18.418706 0.000002 0.000002 -0.000001 -8.076700 -0.486706 -3.806274 1.816968 -24.591312 18.479517 0.645847 -2.432850 32.481989 0.203321 -1.522614 18.240029 -0.000002 0.000002 -0.000001 4.570447 11.014709 -2.160859 4.590723 -1.125014 -9.265968 -17.490567 -4.055790 -56.276835 -4.806257 -48.766458 -2.179499 0.886927 13.427022 -30.445326 2.466126 -1.576218 2.681726 2.200410 0.871455 -5.256710 4.754169 41.652027 8.782993 -5.673374 6.367346 14.943458 0.000000 -0.000000 0.000003 9.109311 -0.518050 2.259868 11.647518 -12.229297 2.502058 2.088901 4.489406 -49.867590 1.412713 3.809427 -40.619504 -0.000001 -0.000005 -0.000011 9.533419 0.000022 0.000035 0.123288 3.192131 -8.182523 2.019040 4.428515 -49.048381 1.048986 3.348080 -34.785385 0.000000 0.000003 0.000001 9.104550 -0.043042 -1.865084 2.073535 8.399922 -17.687470 1.872449 4.292956 -47.101551 0.936150 3.177883 -32.807127 -0.000000 0.000002 0.000002 8.077804 -0.486866 -3.806273 2.459967 25.889581 -24.500515 1.846361 4.040927 -44.743896 0.913974 2.940673 -30.490712 0.000002 -0.000001 -0.000000 -8.207787 -6.751678 -1.599561 -8.245595 -12.221232 -9.766493 28.575162 5.109551 -1.652044 -10.234299 -1.643381 10.630385 -0.463188 0.000001 0.000011 0.000000 0.000001 -0.000000 8.207789 -6.751702 -1.599556 -6.151521 16.448748 16.100824 25.917764 -5.924370 -1.863958 -9.552996 0.729581 -6.811792 -0.000063 0.000004 -0.000006 -0.000000 0.000001 0.000000 
0.011760 100.536911 1.501770 -11.730385 -3.781179 -1.677786 -0.000005 10.181586 0.131518 4.469260 1.449911 0.092228 12.272234 0.703619 -0.393011 23.516328 0.593972 -0.493136 0.000001 16.740412 -2.049044 -13.011139 1.245636 -3.648381 0.000000 9.617862 1.685014 -6.180574 -6.250895 -0.372602 0.000002 22.037338 7.501094 0.000000 0.000001 -0.000000 -4.569967 11.014916 -2.160879 3.996229 2.583240 7.670690 -14.948958 9.442029 57.273622 -4.434149 46.473550 1.904607 -0.192142 1.820002 22.321203 -2.464809 -1.573966 2.681852 0.954052 0.998592 5.826206 4.522321 -43.401252 -9.479671 -4.022605 -12.283966 -16.204998 0.000006 -0.000009 0.000001 -9.108280 -0.517863 2.259839 11.867853 12.351303 -6.256064 0.929451 -2.774957 36.926564 0.427377 -1.961215 24.717521 -0.000004 0.000005 -0.000002 -9.532506 -0.000045 -0.000022 0.056053 -2.561371 2.725212 0.813613 -2.574838 34.843158 0.253777 -1.557832 19.018836 0.000001 -0.000003 0.000004 -9.103573 -0.043073 -1.865127 1.405217 -7.642941 11.513642 0.773924 -2.590848 33.383861 0.248776 -1.495934 18.542970 -0.000001 -0.000002 -0.000009 -8.076694 -0.486709 -3.806272 1.819523 -24.598557 18.573970 0.649177 -2.438474 32.562090 0.203953 -1.524670 18.266458 -0.000001 0.000001 -0.000008 4.570446 11.014711 -2.160857 4.532250 -0.810994 -8.880637 -16.642410 -3.802914 -56.167480 -5.046733 -50.144571 -2.362294 0.936102 13.901339 -30.830350 2.466136 -1.576205 2.681731 2.200414 0.871449 -5.256701 4.754154 41.652024 8.782982 -5.673376 6.367336 14.943462 0.000002 0.000005 -0.000003 9.109306 -0.518032 2.259877 11.647383 -12.226547 2.475276 2.093538 4.493294 -49.926886 1.416656 3.814035 -40.678687 0.000001 0.000001 -0.000007 9.533432 0.000027 0.000042 0.125902 3.210142 -8.360334 2.049493 4.454690 -49.441936 1.072020 3.380926 -35.177919 0.000001 0.000006 0.000002 9.104556 -0.043036 -1.865078 2.105896 8.418172 -18.004894 1.925464 4.341453 -47.805481 0.975227 3.237592 -33.505353 0.000000 0.000003 -0.000008 8.077797 -0.486873 -3.806269 2.480532 25.925887 -24.906830 1.912407 4.101856 -45.623471 0.962779 3.015983 -31.368156 -0.000001 0.000001 0.000003 -8.207786 -6.751669 -1.599561 -8.132165 -12.083074 -9.578479 28.297127 5.030576 -1.681767 -10.165099 -1.620648 10.658638 -0.412499 -0.000000 -0.000002 -0.000000 0.000002 -0.000000 8.207792 -6.751686 -1.599556 -5.970750 16.272839 15.868293 25.652251 -5.399318 -1.487071 -9.449619 0.728201 -7.146471 -0.000119 0.000001 0.000006 0.000000 0.000001 0.000000 
-0.016388 100.602364 1.545883 -11.654126 -3.895103 -1.732349 -0.000005 10.181564 0.131516 4.350678 1.481470 0.108437 12.189250 0.729624 -0.368300 23.450613 0.620586 -0.471822 0.000002 16.740381 -2.049033 -13.279927 1.251085 -3.633312 -0.000001 9.617857 1.685014 -6.027576 -6.242977 -0.365656 0.000004 22.037354 7.501092 -0.000002 0.000000 -0.000000 -4.569967 11.014915 -2.160882 3.917162 2.338640 7.394561 -14.300877 9.234966 57.090833 -4.621735 47.654933 2.041981 -0.339100 1.435724 22.679652 -2.464811 -1.573969 2.681846 0.954051 0.998588 5.826204 4.522329 -43.401252 -9.479671 -4.022607 -12.283966 -16.205003 0.000002 -0.000003 0.000007 -9.108279 -0.517867 2.259833 11.861509 12.288411 -5.479007 0.962164 -2.818119 37.592463 0.434879 -1.977430 24.937202 -0.000004 -0.000003 0.000002 -9.532506 -0.000050 -0.000023 0.059830 -2.618326 3.425643 0.841427 -2.614988 35.444235 0.259049 -1.573092 19.217096 0.000000 -0.000001 0.000002 -9.103587 -0.043077 -1.865133 1.455166 -7.672356 12.048968 0.794560 -2.621753 33.840811 0.252728 -1.507496 18.693034 -0.000001 0.000001 -0.000004 -8.076689 -0.486704 -3.806280 1.825789 -24.616143 18.803765 0.657299 -2.452099 32.757037 0.205494 -1.529682 18.330740 0.000000 0.000003 -0.000004 4.570446 11.014715 -2.160859 4.477493 -0.450862 -8.505722 -15.873563 -3.657899 -56.125666 -5.291938 -51.472121 -2.552323 0.969617 14.324138 -31.177833 2.466123 -1.576218 2.681733 2.200412 0.871459 -5.256712 4.754153 41.652020 8.782983 -5.673371 6.367358 14.943462 0.000000 -0.000002 -0.000004 9.109303 -0.518042 2.259873 11.647482 -12.228643 2.495673 2.089996 4.490335 -49.881674 1.413650 3.810510 -40.633540 0.000001 0.000004 -0.000009 9.533416 0.000029 0.000040 0.127780 3.222923 -8.486467 2.071210 4.473143 -49.721175 1.088501 3.404130 -35.456444 0.000000 0.000005 0.000000 9.104543 -0.043034 -1.865078 2.134531 8.434047 -18.285473 1.972877 4.383834 -48.428623 1.010402 3.290008 -34.123123 -0.000000 0.000004 0.000003 8.077791 -0.486881 -3.806266 2.500131 25.959937 -25.289301 1.975405 4.158246 -46.451413 1.009751 3.086177 -32.194056 -0.000001 0.000001 0.000002 -8.207786 -6.751679 -1.599562 -8.015654 -11.932469 -9.390504 28.016432 4.893028 -1.754191 -10.076544 -1.600738 10.755026 -0.377176 -0.000004 -0.000001 0.000000 0.000001 -0.000000 8.207791 -6.751711 -1.599557 -5.787579 16.078344 15.607981 25.383018 -4.880123 -1.107541 -9.345330 0.726052 -7.468913 -0.000077 -0.000006 0.000002 0.000000 0.000001 0.000000 
